<?xml version="1.0" standalone="no"?>
<!DOCTYPE svg PUBLIC "-//W3C//DTD SVG 20010904//EN"
 "http://www.w3.org/TR/2001/REC-SVG-20010904/DTD/svg10.dtd">
<svg version="1.0" xmlns="http://www.w3.org/2000/svg"
 width="347.000000pt" height="324.000000pt" viewBox="0 0 347.000000 324.000000"
 preserveAspectRatio="xMidYMid meet">

<g transform="translate(0.000000,324.000000) scale(0.100000,-0.100000)"
fill="#000000" stroke="none">
<path d="M2498 2063 c-76 -3 -119 -8 -126 -16 -11 -14 -191 -464 -221 -552
-11 -33 -31 -89 -45 -125 l-24 -65 -12 30 c-6 17 -32 84 -57 150 -25 66 -65
170 -90 230 -47 113 -66 161 -109 278 l-26 67 -114 0 -115 0 -26 -57 c-24 -55
-110 -273 -209 -533 -53 -138 -73 -180 -73 -159 -2 33 -183 509 -264 692 l-26
57 -147 0 c-113 0 -145 -3 -141 -12 34 -75 130 -312 172 -423 157 -409 268
-682 285 -700 16 -16 37 -21 99 -23 90 -5 158 18 178 59 7 13 57 137 112 274
111 278 150 369 156 363 2 -2 48 -112 101 -243 53 -132 113 -280 133 -330 42
-105 63 -121 167 -134 115 -14 155 21 208 179 14 41 38 109 54 150 16 41 56
147 90 235 34 88 98 252 142 365 100 251 100 251 69 248 -13 -1 -76 -4 -141
-5z"/>
<path d="M2953 1542 c-62 -25 -88 -56 -118 -138 -15 -41 -31 -77 -36 -80 -5
-3 -9 -13 -9 -24 0 -32 -123 -250 -153 -271 -5 -3 -9 -10 -9 -15 1 -5 -6 -8
-14 -6 -8 2 -14 -5 -14 -14 0 -11 -6 -15 -20 -11 -11 3 -23 1 -26 -4 -3 -5
-14 -9 -25 -9 -10 0 -19 -4 -19 -10 0 -5 -9 -10 -19 -10 -11 0 -23 -5 -27 -12
-5 -7 -3 -8 6 -3 8 5 11 4 7 -2 -7 -11 -36 -11 -54 0 -13 8 -26 -20 -16 -35 4
-7 1 -8 -8 -2 -17 10 -71 15 -65 5 6 -8 -42 -7 -51 2 -3 4 -11 7 -17 7 -6 0
-5 -4 2 -9 9 -5 -2 -15 -38 -30 -40 -17 -58 -33 -86 -77 -43 -67 -164 -165
-259 -208 -81 -38 -279 -73 -348 -62 -23 4 -58 8 -77 9 -19 1 -40 5 -46 9 -7
4 -25 3 -40 -2 -30 -10 -87 -8 -116 4 -9 4 -25 2 -35 -4 -17 -11 -17 -11 0 -6
10 3 15 2 12 -4 -3 -5 -19 -7 -35 -3 -18 3 -36 0 -46 -8 -11 -9 -17 -10 -23
-1 -7 12 -51 5 -51 -8 0 -5 -12 -7 -26 -5 -17 1 -24 -2 -20 -10 3 -9 -3 -12
-20 -10 -15 1 -24 -3 -24 -12 0 -10 -5 -11 -16 -5 -18 10 -54 -13 -54 -35 0
-6 -9 -15 -20 -18 -11 -4 -18 -11 -14 -16 3 -6 13 -8 21 -5 8 3 11 1 8 -4 -14
-22 224 -138 368 -179 176 -51 338 -67 502 -51 462 44 825 265 1085 661 60 91
133 254 170 379 23 78 49 244 50 318 l0 42 -47 -1 c-27 0 -67 -8 -90 -17z
m-428 -662 c-3 -5 -11 -10 -16 -10 -6 0 -7 5 -4 10 3 6 11 10 16 10 6 0 7 -4
4 -10z"/>
<path d="M2130 845 c0 -8 5 -15 10 -15 6 0 10 7 10 15 0 8 -4 15 -10 15 -5 0
-10 -7 -10 -15z"/>
</g>
</svg>
